<?xml version="1.0" standalone="no"?>
<!DOCTYPE svg PUBLIC "-//W3C//DTD SVG 20010904//EN"
 "http://www.w3.org/TR/2001/REC-SVG-20010904/DTD/svg10.dtd">
<svg version="1.0" xmlns="http://www.w3.org/2000/svg"
 width="300.000000pt" height="300.000000pt" viewBox="0 0 300.000000 300.000000"
 preserveAspectRatio="xMidYMid meet">
<metadata>
Created by potrace 1.10, written by Peter Selinger 2001-2011
</metadata>
<g transform="translate(0.000000,300.000000) scale(0.100000,-0.100000)"
fill="#ff0000" stroke="none">
<path d="M1291 2865 c-143 -23 -285 -66 -392 -121 -58 -29 -55 -5 -34 -304 9
-113 19 -260 24 -328 7 -108 11 -126 31 -147 35 -37 76 -32 183 21 297 149
536 397 668 692 64 144 67 158 37 165 -140 36 -368 45 -517 22z"/>
<path d="M2189 2642 c-13 -10 -140 -97 -282 -192 -142 -95 -265 -182 -272
-194 -37 -52 -10 -96 105 -171 141 -92 278 -152 450 -197 96 -24 142 -30 275
-35 144 -5 304 6 350 23 11 5 9 18 -12 77 -63 179 -183 371 -314 505 -84 85
-234 202 -259 202 -10 0 -28 -8 -41 -18z"/>
<path d="M428 2382 c-180 -219 -283 -461 -318 -751 -5 -46 -7 -88 -4 -93 4 -6
95 -53 203 -105 108 -52 256 -124 330 -160 153 -74 179 -76 215 -13 19 31 20
51 20 215 -1 145 -5 199 -23 278 -43 199 -111 363 -216 522 -54 81 -131 175
-144 175 -4 0 -32 -30 -63 -68z"/>
<path d="M2175 1740 c-23 -26 -33 -94 -34 -230 -2 -300 84 -583 252 -830 44
-65 109 -141 118 -138 15 6 119 140 163 210 115 185 206 473 206 654 l0 51
-309 151 c-326 160 -360 172 -396 132z"/>
<path d="M318 1119 c-42 -4 -95 -13 -117 -19 -46 -12 -46 -10 8 -143 99 -247
302 -491 533 -641 l27 -18 228 153 c409 275 388 257 391 312 l3 46 -68 50
c-81 60 -250 149 -351 185 -211 75 -423 100 -654 75z"/>
<path d="M1929 999 c-313 -151 -579 -430 -703 -740 -54 -135 -55 -124 11 -139
100 -21 345 -25 458 -7 123 20 254 57 360 103 127 55 117 7 89 409 -13 193
-24 354 -24 358 0 20 -51 57 -78 57 -15 0 -66 -18 -113 -41z"/>
</g>
</svg>
